<?xml version="1.0" standalone="no"?>
<!DOCTYPE svg PUBLIC "-//W3C//DTD SVG 1.1//EN"
"http://www.w3.org/Graphics/SVG/1.1/DTD/svg11.dtd">

<svg width="428" height="188" view_box="0 0 428 188"
xmlns="http://www.w3.org/2000/svg"
xmlns:link="http://www.w3.org/1999/xlink">\n\n<desc>Généré par Mocodo 2.3.7 le Sun, 28 Oct 2018 16:51:07</desc>

<rect id="frame" x="0" y="0" width="428" height="188" fill="#f7f7f7" stroke="none" stroke-width="0"/>

<!-- Association CONTENIR -->
<line x1="71" y1="94" x2="205" y2="94" stroke="#5aae61" stroke-width="2"/>
<text x="138" y="111.0" fill="#762a83" font-family="Verdana" font-size="12">1,N</text>
<line x1="348" y1="94" x2="205" y2="94" stroke="#5aae61" stroke-width="2"/>
<text x="251" y="111.0" fill="#762a83" font-family="Verdana" font-size="12">1,1</text>
<g id="association-CONTENIR">
	<path d="M 231 69 a 14 14 90 0 1 14 14 V 94 h -80 V 83 a 14 14 90 0 1 14 -14" fill="#a6dba0" stroke="#a6dba0" stroke-width="0"/>
	<path d="M 245 94.0 v 11 a 14 14 90 0 1 -14 14 H 179 a 14 14 90 0 1 -14 -14 V 94.0 H 80" fill="#d9f0d3" stroke="#d9f0d3" stroke-width="0"/>
	<rect x="165" y="69" width="80" height="50" fill="none" rx="14" stroke="#5aae61" stroke-width="2"/>
	<line x1="165" y1="94" x2="245" y2="94" stroke="#5aae61" stroke-width="1"/>
	<text x="172" y="86.7" fill="#000000" font-family="Verdana" font-size="12">CONTENIR</text>
</g>

<!-- Entity Flux -->
<g id="entity-Flux">
	<g id="frame-Flux">
		<rect x="9" y="26" width="124" height="25" fill="#c2a5cf" stroke="#c2a5cf" stroke-width="0"/>
		<rect x="9" y="51.0" width="124" height="111" fill="#e7d4e8" stroke="#e7d4e8" stroke-width="0"/>
		<rect x="9" y="26" width="124" height="136" fill="none" stroke="#9970ab" stroke-width="2"/>
		<line x1="9" y1="51" x2="133" y2="51" stroke="#9970ab" stroke-width="1"/>
	</g>
	<text x="58" y="43.7" fill="#000000" font-family="Verdana" font-size="12">Flux</text>
	<text x="14" y="68.7" fill="#000000" font-family="Verdana" font-size="12">idFlux</text>
	<line x1="14" y1="71" x2="51" y2="71" stroke="#000000" stroke-width="1"/>
	<text x="14" y="85.7" fill="#000000" font-family="Verdana" font-size="12">nomFlux</text>
	<text x="14" y="102.8" fill="#000000" font-family="Verdana" font-size="12">urlFlux</text>
	<text x="14" y="119.8" fill="#000000" font-family="Verdana" font-size="12">descriptionFlux</text>
	<text x="14" y="136.8" fill="#000000" font-family="Verdana" font-size="12">lastUpdateFlux</text>
	<text x="14" y="153.8" fill="#000000" font-family="Verdana" font-size="12">periodeUpdateFlux</text>
</g>

<!-- Entity Article -->
<g id="entity-Article">
	<g id="frame-Article">
		<rect x="277" y="9" width="142" height="25" fill="#c2a5cf" stroke="#c2a5cf" stroke-width="0"/>
		<rect x="277" y="34.0" width="142" height="145" fill="#e7d4e8" stroke="#e7d4e8" stroke-width="0"/>
		<rect x="277" y="9" width="142" height="170" fill="none" stroke="#9970ab" stroke-width="2"/>
		<line x1="277" y1="34" x2="419" y2="34" stroke="#9970ab" stroke-width="1"/>
	</g>
	<text x="328" y="26.7" fill="#000000" font-family="Verdana" font-size="12">Article</text>
	<text x="282" y="51.7" fill="#000000" font-family="Verdana" font-size="12">idArticle</text>
	<line x1="282" y1="54" x2="332" y2="54" stroke="#000000" stroke-width="1"/>
	<text x="282" y="68.7" fill="#000000" font-family="Verdana" font-size="12">titreArticle</text>
	<text x="282" y="85.7" fill="#000000" font-family="Verdana" font-size="12">urlArticle</text>
	<text x="282" y="102.8" fill="#000000" font-family="Verdana" font-size="12">descriptionArticle</text>
	<text x="282" y="119.8" fill="#000000" font-family="Verdana" font-size="12">datePublicationArticle</text>
	<text x="282" y="136.8" fill="#000000" font-family="Verdana" font-size="12">auteurArticle</text>
	<text x="282" y="153.8" fill="#000000" font-family="Verdana" font-size="12">imageArticle</text>
	<text x="282" y="170.8" fill="#000000" font-family="Verdana" font-size="12">guidArticle</text>
</g>
</svg>